<?xml version="1.0" encoding="UTF-8"?>
<svg width="56px" height="56px" viewBox="0 0 56 56" version="1.1" xmlns="http://www.w3.org/2000/svg" xmlns:xlink="http://www.w3.org/1999/xlink">
    <!-- Generator: Sketch 49.2 (51160) - http://www.bohemiancoding.com/sketch -->
    <title>logo-fang-01</title>
    <desc>Created with Sketch.</desc>
    <defs></defs>
    <g id="Page-1" stroke="none" stroke-width="1" fill="none" fill-rule="evenodd">
        <g id="购买成功-关注公众号" transform="translate(-34.000000, -542.000000)">
            <g id="Group-2" transform="translate(20.000000, 525.000000)">
                <g id="logo-fang-01" transform="translate(14.000000, 17.000000)">
                    <rect id="Mask" fill="#000000" x="0" y="0" width="56" height="56" rx="8"></rect>
                    <g id="Page-1" transform="translate(11.000000, 17.000000)" fill="#FFFFFF">
                        <path d="M17.4692979,3.06964231 L33.8355106,3.06964231 L32.9148298,9.16279615 L32.0240213,9.16279615 C32.0240213,4.62837308 31.0730851,3.77812308 28.7568298,3.77812308 L27.5090851,3.77812308 L23.677383,21.2917385 L26.5286596,21.2917385 L26.3804468,22.0002192 L17.0238936,22.0002192 L17.1724894,21.2917385 L19.9046596,21.2917385 L23.7961064,3.77812308 L22.8750426,3.77812308 C20.4101915,3.77812308 18.9839787,4.96854615 16.9346596,8.87889231 L16.0434681,8.87889231 L17.4692979,3.06964231 Z M3.02619203,0.711092667 L3.14477622,0 L12.1346054,0 L12.0156387,0.711092667 L9.46416597,0.711092667 L5.60711955,18.2889073 L9.22661506,18.2889073 C12.8464931,18.2889073 13.7366396,16.9521705 16.1396908,12.8561447 L17,12.8561447 L15.3975833,19 L0,19 L0.11858419,18.2889073 L1.89887716,18.2889073 L5.75554105,0.711092667 L3.02619203,0.711092667 Z" id="Fill-3"></path>
                    </g>
                </g>
            </g>
        </g>
    </g>
</svg>